<?xml version="1.0" encoding="UTF-8" standalone="no"?>
<svg
   width="48"
   height="48"
   viewBox="0 0 48 48"
   version="1.1"
   id="garage_unknown_black"
   xmlns="http://www.w3.org/2000/svg"
   xmlns:svg="http://www.w3.org/2000/svg">
  <path
     style="fill:#000000;fill-opacity:1;stroke:none"
     d="M 12,42 H 9 V 18 H 6 v -3 l 18,-9 18,9 v 3 H 39 V 42 H 36 V 21 H 12 Z" />
  <path
     style="stroke:none;stroke-opacity:1;fill:#000000;fill-opacity:1"
     d="M 13 22 L 13 26 L 15.845703 26 L 18.839844 23.505859 L 29.173828 23.505859 L 32.158203 26 L 35 26 L 35 22 L 13 22 z" />
  <path
     style="stroke:none;stroke-opacity:1;fill:#000000;fill-opacity:1"
     d="M 13 27 L 13 31 L 22.041016 31 L 23.871094 29.470703 L 26.623047 29.470703 L 26.623047 27 L 21.390625 27 L 21.390625 28.300781 L 15.005859 28.300781 L 15.005859 27 L 13 27 z" />
  <path
     style="stroke:none;stroke-opacity:1;fill:#000000;fill-opacity:1"
     d="M 32.994141 27 L 32.994141 29.470703 L 31.169922 31 L 35 31 L 35 27 L 32.994141 27 z" />
  <path
     style="stroke:none;stroke-opacity:1;fill:#000000;fill-opacity:1"
     d="M 13 32 L 13 36 L 20.037109 36 L 20.037109 35.771484 L 26.435547 35.771484 L 26.435547 36 L 35 36 L 35 32 L 29.976562 32 L 29.173828 32.673828 L 26.435547 32.673828 L 26.435547 34.167969 L 20.037109 34.167969 L 20.037109 32.673828 L 20.84375 32 L 13 32 z" />
  <path
     style="stroke:none;stroke-opacity:1;fill:#000000;fill-opacity:1"
     d="M 13 37 L 13 41 L 35 41 L 35 37 L 26.435547 37 L 26.435547 39.494141 L 20.037109 39.494141 L 20.037109 37 L 13 37 z " />
</svg>
